Coordinates
version=1
nRows=9
nColumns=24
inDegrees=yes

Units are S.I. units (second, meters, Newtons, ...)
Angles are in degrees.

endheader
time	pelvis_tilt	pelvis_list	pelvis_rotation	pelvis_tx	pelvis_ty	pelvis_tz	hip_flexion_r	hip_adduction_r	hip_rotation_r	knee_angle_r	ankle_angle_r	subtalar_angle_r	mtp_angle_r	hip_flexion_l	hip_adduction_l	hip_rotation_l	knee_angle_l	ankle_angle_l	subtalar_angle_l	mtp_angle_l	lumbar_extension	lumbar_bending	lumbar_rotation
     12.40500000	     -7.70697460	     -2.70910194	      1.34730732	     -1.55057870	      0.00428901	     -0.28702214	      9.51977044	      8.05174325	      6.63173629	    -11.22655223	      1.58835094	     -2.56148152	     12.73577597	     29.07361758	     -5.16592806	     -1.02931240	    -60.04322573	    -13.20608425	      0.04995988	     28.16417676	      7.40693203	      3.60834663	      6.66013373
     12.41000000	     -7.67406635	     -2.52355539	      0.99426973	     -1.54554795	      0.00465129	     -0.28661021	      8.91617032	      7.90084771	      6.93220046	    -10.83662025	      1.79031025	     -2.38887921	     12.44830016	     29.46497434	     -5.00554911	     -1.23731426	    -59.32170033	    -12.43054919	     -0.14953219	     27.06833643	      7.26846080	      3.52757276	      7.02832618
     12.41500000	     -7.78059602	     -2.32549031	      0.67060239	     -1.54058624	      0.00479251	     -0.28618607	      8.49689094	      7.72635553	      7.16307638	    -10.47952728	      1.95403922	     -2.25705023	     12.44576673	     29.99359712	     -4.81569803	     -1.37402408	    -58.48304941	    -11.96623494	     -0.47529802	     26.87060553	      7.27573677	      3.40924114	      7.34607681
     12.42000000	     -7.81863581	     -2.14220549	      0.35227926	     -1.53566607	      0.00495904	     -0.28582202	      8.00039459	      7.55743450	      7.42942400	    -10.11061499	      2.09951101	     -2.11837567	     12.44659228	     30.42925651	     -4.63398498	     -1.48375098	    -57.59523425	    -11.50189228	     -0.78647928	     26.48961312	      7.19747993	      3.31125713	      7.67517331
     12.42500000	     -7.84431794	     -1.97214844	      0.05310395	     -1.53071285	      0.00506450	     -0.28549661	      7.48276226	      7.39563178	      7.68548702	     -9.72511614	      2.25452435	     -2.01790416	     12.46172278	     30.83624914	     -4.46167424	     -1.56768865	    -56.66851097	    -11.04144141	     -1.03227042	     25.99832113	      7.11271687	      3.22702287	      7.98229896
     12.43000000	     -7.90442538	     -1.80065109	     -0.22349845	     -1.52576978	      0.00508973	     -0.28520377	      7.01245535	      7.22507822	      7.90342364	     -9.34758145	      2.37837036	     -1.94356578	     12.47610106	     31.26261394	     -4.28531367	     -1.63017599	    -55.68028203	    -10.62489991	     -1.23954309	     25.60697918	      7.06327150	      3.13132173	      8.21656733
     12.43500000	     -7.86634576	     -1.66754156	     -0.49100415	     -1.52078665	      0.00515121	     -0.28493174	      6.42467918	      7.09236407	      8.15885209	     -8.95718157	      2.48208573	     -1.92561633	     12.47579720	     31.56299935	     -4.14047774	     -1.65125856	    -54.68343429	    -10.05958015	     -1.30290148	     24.66232939	      6.91530568	      3.07740698	      8.48267762
     12.44000000	     -7.93894948	     -1.52418300	     -0.79609249	     -1.51587752	      0.00503915	     -0.28462628	      5.99998841	      6.95411600	      8.40666150	     -8.63631390	      2.63083117	     -1.87950183	     12.49359071	     31.95853727	     -4.01697062	     -1.71405785	    -53.59265519	     -9.75223625	     -1.57488295	     24.29236146	      6.87370145	      3.01657335	      8.79037387
     12.44500000	     -7.93504753	     -1.37928850	     -1.08663920	     -1.51094137	      0.00497426	     -0.28437659	      5.48211155	      6.80574777	      8.68230982	     -8.29877908	      2.75443168	     -1.89296917	     12.45922264	     32.24133282	     -3.88714203	     -1.76489060	    -52.45403698	     -9.40292358	     -1.77174063	     23.72244907	      6.74902264	      2.95824231	      9.07904459
